<svg xmlns="http://www.w3.org/2000/svg" width="1200" height="630" viewBox="0 0 1200 630">
  <defs>
    <linearGradient id="bg" x1="0%" y1="0%" x2="100%" y2="100%">
      <stop offset="0%" style="stop-color:#0a0b0f"/>
      <stop offset="100%" style="stop-color:#0f1117"/>
    </linearGradient>
    <linearGradient id="accent" x1="0%" y1="0%" x2="100%" y2="0%">
      <stop offset="0%" style="stop-color:#818cf8"/>
      <stop offset="100%" style="stop-color:#22d3a5"/>
    </linearGradient>
    <linearGradient id="glow" x1="50%" y1="0%" x2="50%" y2="100%">
      <stop offset="0%" style="stop-color:#6366f1;stop-opacity:0.15"/>
      <stop offset="100%" style="stop-color:#6366f1;stop-opacity:0"/>
    </linearGradient>
  </defs>
  <!-- Background -->
  <rect width="1200" height="630" fill="url(#bg)"/>
  <!-- Grid lines -->
  <g opacity="0.04" stroke="#6366f1" stroke-width="1">
    <line x1="0" y1="40" x2="1200" y2="40"/><line x1="0" y1="80" x2="1200" y2="80"/>
    <line x1="0" y1="120" x2="1200" y2="120"/><line x1="0" y1="160" x2="1200" y2="160"/>
    <line x1="0" y1="200" x2="1200" y2="200"/><line x1="0" y1="240" x2="1200" y2="240"/>
    <line x1="0" y1="280" x2="1200" y2="280"/><line x1="0" y1="320" x2="1200" y2="320"/>
    <line x1="0" y1="360" x2="1200" y2="360"/><line x1="0" y1="400" x2="1200" y2="400"/>
    <line x1="0" y1="440" x2="1200" y2="440"/><line x1="0" y1="480" x2="1200" y2="480"/>
    <line x1="0" y1="520" x2="1200" y2="520"/><line x1="0" y1="560" x2="1200" y2="560"/>
    <line x1="0" y1="600" x2="1200" y2="600"/>
    <line x1="40" y1="0" x2="40" y2="630"/><line x1="80" y1="0" x2="80" y2="630"/>
    <line x1="120" y1="0" x2="120" y2="630"/><line x1="160" y1="0" x2="160" y2="630"/>
    <line x1="200" y1="0" x2="200" y2="630"/><line x1="240" y1="0" x2="240" y2="630"/>
    <line x1="280" y1="0" x2="280" y2="630"/><line x1="320" y1="0" x2="320" y2="630"/>
    <line x1="360" y1="0" x2="360" y2="630"/><line x1="400" y1="0" x2="400" y2="630"/>
    <line x1="440" y1="0" x2="440" y2="630"/><line x1="480" y1="0" x2="480" y2="630"/>
    <line x1="520" y1="0" x2="520" y2="630"/><line x1="560" y1="0" x2="560" y2="630"/>
    <line x1="600" y1="0" x2="600" y2="630"/><line x1="640" y1="0" x2="640" y2="630"/>
    <line x1="680" y1="0" x2="680" y2="630"/><line x1="720" y1="0" x2="720" y2="630"/>
    <line x1="760" y1="0" x2="760" y2="630"/><line x1="800" y1="0" x2="800" y2="630"/>
    <line x1="840" y1="0" x2="840" y2="630"/><line x1="880" y1="0" x2="880" y2="630"/>
    <line x1="920" y1="0" x2="920" y2="630"/><line x1="960" y1="0" x2="960" y2="630"/>
    <line x1="1000" y1="0" x2="1000" y2="630"/><line x1="1040" y1="0" x2="1040" y2="630"/>
    <line x1="1080" y1="0" x2="1080" y2="630"/><line x1="1120" y1="0" x2="1120" y2="630"/>
    <line x1="1160" y1="0" x2="1160" y2="630"/>
  </g>
  <!-- Glow blob -->
  <ellipse cx="600" cy="280" rx="500" ry="300" fill="url(#glow)"/>
  <!-- Border -->
  <rect x="0" y="0" width="1200" height="630" fill="none" stroke="rgba(99,102,241,0.2)" stroke-width="2"/>
  <!-- Top accent bar -->
  <rect x="0" y="0" width="1200" height="4" fill="url(#accent)"/>
  <!-- Logo area -->
  <rect x="80" y="200" width="100" height="100" rx="22" fill="#1a1d27" stroke="rgba(99,102,241,0.3)" stroke-width="1.5"/>
  <!-- Bulldog placeholder circle in logo -->
  <circle cx="130" cy="250" r="32" fill="rgba(99,102,241,0.12)"/>
  <text x="130" y="262" text-anchor="middle" font-size="32">🐾</text>
  <!-- Title -->
  <text x="210" y="235" font-family="Inter, Arial, sans-serif" font-size="64" font-weight="900" letter-spacing="-2" fill="#e8eaf0">Hex</text>
  <text x="328" y="235" font-family="Inter, Arial, sans-serif" font-size="64" font-weight="900" letter-spacing="-2" fill="url(#accent)">Help AI</text>
  <!-- Subtitle -->
  <text x="210" y="275" font-family="Inter, Arial, sans-serif" font-size="26" fill="#7c7f96" font-weight="400">Free Developer Tools — No signup, no tracking</text>
  <!-- Tool badges -->
  <g font-family="Inter, Arial, sans-serif" font-size="18" font-weight="600">
    <!-- Row 1 -->
    <rect x="80" y="340" width="170" height="42" rx="10" fill="#1a1d27" stroke="rgba(99,102,241,0.25)" stroke-width="1"/>
    <text x="165" y="367" text-anchor="middle" fill="#a5b4fc">🌐 IP Lookup</text>
    <rect x="264" y="340" width="160" height="42" rx="10" fill="#1a1d27" stroke="rgba(34,211,165,0.2)" stroke-width="1"/>
    <text x="344" y="367" text-anchor="middle" fill="#5eead4">🔍 DNS Lookup</text>
    <rect x="438" y="340" width="140" height="42" rx="10" fill="#1a1d27" stroke="rgba(168,85,247,0.2)" stroke-width="1"/>
    <text x="508" y="367" text-anchor="middle" fill="#d8b4fe">📱 QR Code</text>
    <rect x="592" y="340" width="180" height="42" rx="10" fill="#1a1d27" stroke="rgba(20,184,166,0.2)" stroke-width="1"/>
    <text x="682" y="367" text-anchor="middle" fill="#5eead4">📐 Unit Convert</text>
    <rect x="786" y="340" width="160" height="42" rx="10" fill="#1a1d27" stroke="rgba(236,72,153,0.2)" stroke-width="1"/>
    <text x="866" y="367" text-anchor="middle" fill="#f9a8d4">🎨 Color Picker</text>
    <rect x="960" y="340" width="160" height="42" rx="10" fill="#1a1d27" stroke="rgba(239,68,68,0.2)" stroke-width="1"/>
    <text x="1040" y="367" text-anchor="middle" fill="#fca5a5">🔒 Hash Gen</text>
    <!-- Row 2 -->
    <rect x="80" y="398" width="170" height="42" rx="10" fill="#1a1d27" stroke="rgba(250,204,21,0.2)" stroke-width="1"/>
    <text x="165" y="425" text-anchor="middle" fill="#fde68a">🔗 URL Encoder</text>
    <rect x="264" y="398" width="160" height="42" rx="10" fill="#1a1d27" stroke="rgba(236,72,153,0.2)" stroke-width="1"/>
    <text x="344" y="425" text-anchor="middle" fill="#f9a8d4">🔐 Base64</text>
    <rect x="438" y="398" width="140" height="42" rx="10" fill="#1a1d27" stroke="rgba(6,182,212,0.2)" stroke-width="1"/>
    <text x="508" y="425" text-anchor="middle" fill="#67e8f9">📋 JSON fmt</text>
    <rect x="592" y="398" width="180" height="42" rx="10" fill="#1a1d27" stroke="rgba(250,204,21,0.2)" stroke-width="1"/>
    <text x="682" y="425" text-anchor="middle" fill="#fde68a">🔑 Passwords</text>
    <rect x="786" y="398" width="160" height="42" rx="10" fill="#1a1d27" stroke="rgba(6,182,212,0.2)" stroke-width="1"/>
    <text x="866" y="425" text-anchor="middle" fill="#67e8f9">🕐 Timestamp</text>
    <rect x="960" y="398" width="160" height="42" rx="10" fill="#1a1d27" stroke="rgba(249,115,22,0.2)" stroke-width="1"/>
    <text x="1040" y="425" text-anchor="middle" fill="#fdba74">🏢 WHOIS</text>
  </g>
  <!-- Bottom bar -->
  <text x="600" y="560" text-anchor="middle" font-family="Inter, Arial, sans-serif" font-size="22" fill="#4a4d60">hexhelpai.com · 12 free tools · No tracking · Privacy first</text>
</svg>
